0
SECTION
2
HEADER
9
$INSUNITS
70
4
9
$ACADVER
1
AC1014
9
$HANDSEED
5
FFFF
0
ENDSEC
0
SECTION
2
TABLES
0
TABLE
2
VPORT
5
8
100
AcDbSymbolTable
0
ENDTAB
0
TABLE
2
LTYPE
5
5
100
AcDbSymbolTable
0
LTYPE
5
14
100
AcDbSymbolTableRecord
100
AcDbLinetypeTableRecord
2
BYBLOCK
70
0
0
LTYPE
5
15
100
AcDbSymbolTableRecord
100
AcDbLinetypeTableRecord
2
BYLAYER
70
0
0
ENDTAB
0
TABLE
2
LAYER
5
2
100
AcDbSymbolTable
70
2
0
LAYER
5
50
100
AcDbSymbolTableRecord
100
AcDbLayerTableRecord
2
0
70
0
6
CONTINUOUS
0
ENDTAB
0
TABLE
2
STYLE
5
3
100
AcDbSymbolTable
70
1
0
STYLE
5
11
100
AcDbSymbolTableRecord
100
AcDbTextStyleTableRecord
2
STANDARD
70
0
0
ENDTAB
0
TABLE
2
VIEW
5
6
100
AcDbSymbolTable
70
0
0
ENDTAB
0
TABLE
2
UCS
5
7
100
AcDbSymbolTable
70
0
0
ENDTAB
0
TABLE
2
APPID
5
9
100
AcDbSymbolTable
70
2
0
APPID
5
12
100
AcDbSymbolTableRecord
100
AcDbRegAppTableRecord
2
ACAD
70
0
0
ENDTAB
0
TABLE
2
DIMSTYLE
5
A
100
AcDbSymbolTable
70
1
0
ENDTAB
0
TABLE
2
BLOCK_RECORD
5
1
100
AcDbSymbolTable
70
1
0
BLOCK_RECORD
5
1F
100
AcDbSymbolTableRecord
100
AcDbBlockTableRecord
2
*MODEL_SPACE
0
BLOCK_RECORD
5
1B
100
AcDbSymbolTableRecord
100
AcDbBlockTableRecord
2
*PAPER_SPACE
0
ENDTAB
0
ENDSEC
0
SECTION
2
BLOCKS
0
BLOCK
5
20
100
AcDbEntity
100
AcDbBlockBegin
2
*MODEL_SPACE
0
ENDBLK
5
21
100
AcDbEntity
100
AcDbBlockEnd
0
BLOCK
5
1C
100
AcDbEntity
100
AcDbBlockBegin
2
*PAPER_SPACE
0
ENDBLK
5
1D
100
AcDbEntity
100
AcDbBlockEnd
0
ENDSEC
0
SECTION
2
ENTITIES
0
LWPOLYLINE
5
100
100
AcDbEntity
8
0
100
AcDbPolyline
90
28
70
1
43
0.0
10
436.00000000000011
20
99
10
436
20
130.00000000000003
10
366.83333333333331
20
130.00000000000003
10
366.83333333333331
20
132.00000000000003
10
294.66666666666669
20
132.00000000000003
10
294.66666666666669
20
130.00000000000003
10
147.33333333333334
20
130.00000000000003
10
147.33333333333334
20
132.00000000000003
10
75.166666666666671
20
132.00000000000003
10
75.166666666666671
20
130.00000000000003
10
2.9999999999999893
20
130.00000000000003
10
3.0000000000000004
20
99
10
0
20
99
10
0
20
33.000000000000007
10
3.0000000000000004
20
33
10
2.9999999999999938
20
2.0000000000000107
10
75.166666666666671
20
2.0000000000000107
10
75.166666666666671
20
0
10
147.33333333333334
20
0
10
147.33333333333334
20
2.0000000000000107
10
294.66666666666669
20
2.0000000000000107
10
294.66666666666669
20
0
10
366.83333333333331
20
0
10
366.83333333333331
20
2.0000000000000107
10
436
20
2.0000000000000107
10
436.00000000000011
20
33
10
439.00000000000006
20
33
10
439.00000000000006
20
99
0
LWPOLYLINE
5
101
100
AcDbEntity
8
0
100
AcDbPolyline
90
4
70
1
43
0.0
10
20
20
33.000000000000007
10
20
20
99
10
22.999999999999972
20
99
10
22.999999999999972
20
33.000000000000007
0
LWPOLYLINE
5
102
100
AcDbEntity
8
0
100
AcDbPolyline
90
4
70
1
43
0.0
10
107.33333333333334
20
99
10
110.33333333333334
20
99
10
110.33333333333334
20
33.000000000000007
10
107.33333333333334
20
33.000000000000007
0
LWPOLYLINE
5
103
100
AcDbEntity
8
0
100
AcDbPolyline
90
4
70
1
43
0.0
10
63.666666666666671
20
99
10
66.666666666666643
20
99
10
66.666666666666643
20
33.000000000000007
10
63.666666666666671
20
33.000000000000007
0
LWPOLYLINE
5
104
100
AcDbEntity
8
0
100
AcDbPolyline
90
4
70
1
43
0.0
10
151
20
99
10
154.00000000000003
20
99
10
154.00000000000003
20
33.000000000000007
10
151
20
33.000000000000007
0
LWPOLYLINE
5
105
100
AcDbEntity
8
0
100
AcDbPolyline
90
4
70
1
43
0.0
10
194.66666666666669
20
99
10
197.66666666666669
20
99
10
197.66666666666669
20
33.000000000000007
10
194.66666666666669
20
33.000000000000007
0
LWPOLYLINE
5
106
100
AcDbEntity
8
0
100
AcDbPolyline
90
4
70
1
43
0.0
10
238.33333333333337
20
99
10
241.33333333333337
20
99
10
241.33333333333337
20
33.000000000000007
10
238.33333333333337
20
33.000000000000007
0
LWPOLYLINE
5
107
100
AcDbEntity
8
0
100
AcDbPolyline
90
4
70
1
43
0.0
10
282
20
99
10
285.00000000000006
20
99
10
285.00000000000006
20
33.000000000000007
10
282
20
33.000000000000007
0
LWPOLYLINE
5
108
100
AcDbEntity
8
0
100
AcDbPolyline
90
4
70
1
43
0.0
10
325.66666666666669
20
99
10
328.66666666666669
20
99
10
328.66666666666669
20
33.000000000000007
10
325.66666666666669
20
33.000000000000007
0
LWPOLYLINE
5
109
100
AcDbEntity
8
0
100
AcDbPolyline
90
4
70
1
43
0.0
10
369.33333333333337
20
99
10
372.33333333333337
20
99
10
372.33333333333337
20
33.000000000000007
10
369.33333333333337
20
33.000000000000007
0
LWPOLYLINE
5
110
100
AcDbEntity
8
0
100
AcDbPolyline
90
4
70
1
43
0.0
10
413.00000000000006
20
99
10
416
20
99
10
416
20
33.000000000000007
10
413.00000000000006
20
33.000000000000007
0
ENDSEC
0
SECTION
2
OBJECTS
0
DICTIONARY
5
C
100
AcDbDictionary
3
ACAD_GROUP
350
D
3
ACAD_MLINESTYLE
350
17
0
DICTIONARY
5
D
100
AcDbDictionary
0
DICTIONARY
5
1A
330
C
100
AcDbDictionary
0
DICTIONARY
5
17
100
AcDbDictionary
0
ENDSEC
0
EOF
